<svg width="14" height="14" viewBox="0 0 14 14" fill="none" xmlns="http://www.w3.org/2000/svg">
<path d="M12.1875 5.15625H7.96875V0.9375C7.96875 0.419824 7.54893 0 7.03125 0H6.09375C5.57607 0 5.15625 0.419824 5.15625 0.9375V5.15625H0.9375C0.419824 5.15625 0 5.57607 0 6.09375V7.03125C0 7.54893 0.419824 7.96875 0.9375 7.96875H5.15625V12.1875C5.15625 12.7052 5.57607 13.125 6.09375 13.125H7.03125C7.54893 13.125 7.96875 12.7052 7.96875 12.1875V7.96875H12.1875C12.7052 7.96875 13.125 7.54893 13.125 7.03125V6.09375C13.125 5.57607 12.7052 5.15625 12.1875 5.15625Z" fill="white"/>
</svg>
